<svg width="18" height="18" viewBox="0 0 18 18" fill="none" xmlns="http://www.w3.org/2000/svg">
<path fill-rule="evenodd" clip-rule="evenodd" d="M1.70667 0.5C1.04024 0.5 0.5 1.04024 0.5 1.70667V16.2933C0.5 16.9597 1.04025 17.5 1.70667 17.5H16.2934C16.9598 17.5 17.5 16.9597 17.5 16.2933V1.70667C17.5 1.04025 16.9598 0.5 16.2934 0.5H1.70667ZM4.3157 5.77937C5.1302 5.77937 5.79045 5.11907 5.79045 4.30462C5.79045 3.49012 5.1302 2.82987 4.3157 2.82987C3.50125 2.82987 2.84095 3.49012 2.84095 4.30462C2.84095 5.11907 3.50125 5.77937 4.3157 5.77937ZM7.1411 6.86922H9.5852V7.98892C9.5852 7.98892 10.2485 6.66242 12.0531 6.66242C13.6629 6.66242 14.9964 7.45542 14.9964 9.87262V14.9698H12.4635V10.4903C12.4635 9.06432 11.7023 8.90752 11.1222 8.90752C9.91835 8.90752 9.71225 9.94592 9.71225 10.6763V14.9698H7.1411V6.86922ZM5.6013 6.86927H3.03015V14.9698H5.6013V6.86927Z" fill="black"/>
</svg>
