<svg width="18" height="18" viewBox="0 0 18 18" fill="none" xmlns="http://www.w3.org/2000/svg">
<path d="M9.0003 0.272949C6.6302 0.272949 6.33275 0.283314 5.4019 0.325679C4.4728 0.368224 3.83865 0.515314 3.28375 0.731129C2.7098 0.954039 2.2229 1.25222 1.73781 1.73749C1.25237 2.22256 0.954198 2.70951 0.730568 3.28331C0.514213 3.83841 0.366943 4.47276 0.325128 5.40152C0.283488 6.33242 0.272583 6.63006 0.272583 9.00021C0.272583 11.3704 0.283128 11.667 0.325308 12.5979C0.368033 13.527 0.515118 14.1611 0.730748 14.7161C0.953833 15.2901 1.25201 15.777 1.73726 16.2621C2.22215 16.7475 2.70905 17.0464 3.28265 17.2693C3.83795 17.4851 4.47225 17.6322 5.40115 17.6748C6.33205 17.7171 6.6293 17.7275 8.9992 17.7275C11.3695 17.7275 11.6661 17.7171 12.597 17.6748C13.526 17.6322 14.1609 17.4851 14.7162 17.2693C15.29 17.0464 15.7761 16.7475 16.261 16.2621C16.7465 15.777 17.0446 15.2901 17.2683 14.7162C17.4828 14.1611 17.6301 13.5268 17.6737 12.5981C17.7155 11.6671 17.7264 11.3704 17.7264 9.00021C17.7264 6.63006 17.7155 6.33256 17.6737 5.40166C17.6301 4.47256 17.4828 3.83841 17.2683 3.28351C17.0446 2.70951 16.7465 2.22256 16.261 1.73749C15.7756 1.25204 15.2901 0.953859 14.7156 0.731129C14.1593 0.515314 13.5247 0.368224 12.5957 0.325679C11.6648 0.283314 11.3684 0.272949 8.9976 0.272949H9.0003ZM8.21745 1.84568C8.4498 1.84531 8.70905 1.84568 9.0003 1.84568C11.3304 1.84568 11.6066 1.85404 12.5268 1.89586C13.3777 1.93477 13.8395 2.07696 14.1471 2.19641C14.5544 2.35456 14.8447 2.54366 15.15 2.84911C15.4554 3.15456 15.6445 3.44551 15.803 3.85276C15.9225 4.16006 16.0649 4.62186 16.1036 5.47276C16.1454 6.39277 16.1545 6.66912 16.1545 8.99822C16.1545 11.3273 16.1454 11.6037 16.1036 12.5237C16.0647 13.3746 15.9225 13.8364 15.803 14.1437C15.6449 14.551 15.4554 14.841 15.15 15.1462C14.8445 15.4517 14.5545 15.6408 14.1471 15.799C13.8398 15.919 13.3777 16.0608 12.5268 16.0997C11.6068 16.1415 11.3304 16.1506 9.0003 16.1506C6.67 16.1506 6.39385 16.1415 5.4739 16.0997C4.623 16.0604 4.1612 15.9182 3.8534 15.7988C3.4461 15.6406 3.1552 15.4515 2.84975 15.1461C2.54435 14.8406 2.35525 14.5504 2.1967 14.143C2.07725 13.8357 1.93489 13.3739 1.89617 12.523C1.85435 11.603 1.84599 11.3266 1.84599 8.99606C1.84599 6.66551 1.85435 6.39056 1.89617 5.47056C1.93508 4.61966 2.07725 4.15786 2.1967 3.85021C2.3549 3.44296 2.54435 3.15206 2.84975 2.84656C3.1552 2.54111 3.4461 2.35206 3.8534 2.19351C4.161 2.07351 4.623 1.93168 5.4739 1.89258C6.27895 1.85622 6.59095 1.84531 8.21745 1.84349V1.84568ZM13.6587 3.29476C13.0806 3.29476 12.6115 3.76331 12.6115 4.34166C12.6115 4.91986 13.0806 5.38896 13.6587 5.38896C14.2369 5.38896 14.706 4.91986 14.706 4.34166C14.706 3.76351 14.2369 3.29441 13.6587 3.29441V3.29476ZM9.0003 4.51841C6.5253 4.51841 4.51865 6.52511 4.51865 9.00021C4.51865 11.4753 6.5253 13.4811 9.0003 13.4811C11.4754 13.4811 13.4813 11.4753 13.4813 9.00021C13.4813 6.52511 11.4752 4.51841 9.00015 4.51841H9.0003ZM9.0003 6.09111C10.6068 6.09111 11.9093 7.39351 11.9093 9.00021C11.9093 10.6068 10.6068 11.9093 9.0003 11.9093C7.39365 11.9093 6.0913 10.6068 6.0913 9.00021C6.0913 7.39351 7.39365 6.09111 9.0003 6.09111Z" fill="black"/>
</svg>
