<svg width="19" height="17" viewBox="0 0 19 17" fill="none" xmlns="http://www.w3.org/2000/svg">
<path fill-rule="evenodd" clip-rule="evenodd" d="M16.7717 4.08865C16.7785 4.2635 16.7808 4.43835 16.7808 4.6132C16.7808 9.9154 13.0509 16.0365 6.23035 16.0365C4.1352 16.0365 2.187 15.3687 0.545532 14.232C0.835692 14.2638 1.13037 14.2877 1.42958 14.2877C3.16675 14.2877 4.76675 13.6436 6.0359 12.5625C4.4133 12.5387 3.04315 11.3701 2.5706 9.7803C2.79745 9.828 3.0311 9.8519 3.27 9.8519C3.6069 9.8519 3.93395 9.80425 4.2475 9.70885C2.5495 9.3432 1.27056 7.72155 1.27056 5.774C1.27056 5.75015 1.27056 5.74215 1.27056 5.72625C1.77098 6.02035 2.34375 6.2031 2.95195 6.22695C1.95562 5.50355 1.30068 4.27145 1.30068 2.8803C1.30068 2.149 1.48307 1.45735 1.80413 0.861158C3.6325 3.29365 6.36605 4.8915 9.44775 5.05845C9.3844 4.7643 9.352 4.45435 9.352 4.14435C9.352 1.92645 11.0123 0.129883 13.0607 0.129883C14.1271 0.129883 15.0903 0.614863 15.7663 1.3939C16.6127 1.219 17.4055 0.885163 18.123 0.424103C17.8449 1.3621 17.2578 2.14895 16.4906 2.6418C17.2412 2.5464 17.9573 2.33195 18.6213 2.01395C18.1231 2.81685 17.496 3.52425 16.7717 4.08865Z" fill="black"/>
</svg>
